<?xml version="1.0" encoding="UTF-8"?>
<svg width="76px" height="88px" viewBox="0 0 76 88" version="1.1" xmlns="http://www.w3.org/2000/svg" xmlns:xlink="http://www.w3.org/1999/xlink">
    <title>编组</title>
    <g id="页面-2" stroke="none" stroke-width="1" fill="none" fill-rule="evenodd" opacity="0.207303779">
        <g id="空" transform="translate(-150.000000, -141.000000)" fill-rule="nonzero">
            <g id="编组" transform="translate(150.000000, 141.000000)">
                <path d="M0,85.2564103 C0,86.1266726 7.24275873,86.9308281 19,87.3659593 C30.7572408,87.8010905 45.2427592,87.8010905 57,87.3659593 C68.7572413,86.9308281 76,86.1266726 76,85.2564103 C76,84.3861479 68.7572413,83.5819924 57,83.1468612 C45.2427592,82.71173 30.7572408,82.71173 19,83.1468612 C7.24275873,83.5819924 0,84.3861479 0,85.2564103 L0,85.2564103 Z" id="路径" fill="#E9E9EB" opacity="0.445971112"></path>
                <polygon id="路径" fill-opacity="0" fill="#808080" points="0 0 76 0 76 76 0 76"></polygon>
                <polygon id="路径" fill="#FEFEFE" opacity="0.109375" points="64.1255201 22.4133748 37.697921 8.76923077 12.0643583 22.3960819 11.3566302 21.9810509 11.3566302 22.7765271 11.1667521 22.9321637 11.3911535 23.0532144 10.7179487 51.9497474 37.9741076 67.6863394 37.9741076 68.2051282 65.2820513 52.8489812 65.2820513 22.4133748"></polygon>
                <path d="M65.1794528,21.4356704 L65.1794528,21.3148464 C65.1794528,21.1940222 65.1794528,21.3148464 65.1794528,21.3148464 C65.0475024,20.9641951 64.7916822,20.675227 64.4612639,20.5035984 L37.7172785,6.98855274 C37.2943391,6.76449951 36.7893389,6.76449951 36.3663995,6.98855274 L9.69081311,20.4518167 C8.95909365,20.7625405 8.59235367,21.5935792 8.85292604,22.3504821 C8.82704255,22.4989331 8.82704255,22.6508065 8.85292604,22.7992576 L8.85292604,51.4345841 C8.85065271,51.9724174 9.13032019,52.4713634 9.58821463,52.7463894 L36.2125019,68.9540877 C36.4459152,69.1080542 36.7203659,69.186346 36.9990896,69.1790157 C37.2246948,69.1782993 37.4471621,69.125114 37.6488796,69.0231302 L37.7685778,69.0231302 L64.2731669,53.4885949 C64.752223,53.2220622 65.0477313,52.711658 65.0426549,52.1595291 L65.2820513,21.8844461 C65.2729823,21.7301113 65.2383005,21.5784097 65.1794528,21.4356704 Z M35.5456121,38.3337928 L35.5456121,64.9668903 L11.8795792,50.5888149 L11.8795792,24.439014 L35.5798118,37.9885808 C35.5515337,38.1013061 35.540008,38.2176474 35.5456121,38.3337928 Z M37.050389,35.3304492 L13.5724528,21.9017067 L37.050389,10.043678 L60.5283249,21.9017067 L37.050389,35.3304492 Z M38.5551655,65.0359328 L38.5551655,38.3337928 C38.5644491,38.2189129 38.5644491,38.1034607 38.5551655,37.9885808 L62.2382984,24.4217534 L62.0673011,51.1929357 L38.5551655,65.0359328 Z M16.1887122,32.7068388 C16.3946314,32.3558966 16.7317255,32.1032965 17.1241133,32.0059001 C17.5165011,31.9085036 17.9312074,31.9744957 18.27488,32.1890211 L27.1667422,37.5743265 C27.758571,37.9227494 28.0425163,38.6307341 27.8574854,39.2966149 C27.6724546,39.9624957 27.065165,40.4181483 26.3801542,40.4050642 C26.1031834,40.3999363 25.8322264,40.3226411 25.5935665,40.1806763 L16.7017044,34.7953709 C15.9955681,34.3565309 15.7674568,33.427827 16.1887122,32.7068388 L16.1887122,32.7068388 Z" id="形状" fill="#FFEAB5"></path>
            </g>
        </g>
    </g>
</svg>